<svg width="54" height="24" viewBox="0 0 54 24" fill="none" xmlns="http://www.w3.org/2000/svg">
<path d="M49.4205 2.5752H49.079C48.1217 2.5752 47.1937 2.5752 46.4972 2.58253C44.1395 2.59824 41.9683 3.88981 41.2246 5.90939C40.9659 6.61017 40.3983 8.26418 39.9364 9.67306C39.8924 9.6144 39.8463 9.55784 39.7981 9.50442C39.9803 9.72439 40.0516 10.245 40.2118 11.0317C41.3511 10.5555 42.5708 10.301 43.8054 10.2817C44.3563 10.2712 45.6405 10.2817 46.3726 10.2817C48.4496 10.2817 48.5187 9.30958 48.5721 7.87974H44.0683C44.4593 7.6544 44.9044 7.5403 45.3556 7.54978C46.272 7.54978 47.7729 7.55816 48.4118 7.54978C49.6383 7.53407 50.4092 7.25229 50.6784 6.19745C50.7632 5.86435 50.8418 5.47363 50.9151 5.16252C50.1819 5.16252 46.9926 5.16252 45.5169 5.16252C45.8604 4.93626 46.4071 4.81999 46.9602 4.79799C47.09 4.79799 47.9468 4.79799 48.8874 4.79799C50.007 4.80323 51.2471 4.80637 51.5237 4.79799C52.3542 4.76762 53.1419 4.44184 53.3974 3.22674C53.4414 3.01724 53.4865 2.80774 53.5325 2.58567C53.5325 2.58567 51.5425 2.57939 49.521 2.57834L49.4205 2.5752Z" fill="white"/>
<path d="M17.2331 12.022C17.102 12.0001 16.9745 11.9607 16.8539 11.9047L17.5358 8.43745H18.1433C18.801 8.43745 19.2769 8.53905 19.5709 8.74227C19.8652 8.95177 20.0118 9.26602 20.0118 9.69235C20.0092 9.98191 19.9658 10.2696 19.883 10.5471C19.8079 10.8219 19.6814 11.08 19.5101 11.3076C19.3168 11.5636 19.0571 11.7617 18.7591 11.8806C18.4374 12.0053 18.0945 12.0669 17.7495 12.0618C17.5765 12.0641 17.4037 12.0507 17.2331 12.022V12.022ZM21.9097 8.51496C21.7605 8.32867 21.5805 8.16925 21.3776 8.04359C21.1796 7.92049 20.9652 7.82598 20.7408 7.76285V7.73038C21.0602 7.65497 21.3652 7.52795 21.6437 7.35433C21.9296 7.17857 22.1883 6.96189 22.4114 6.71116C22.4979 6.61182 22.5776 6.50684 22.6502 6.39691C22.5832 6.58337 22.5214 6.77297 22.4627 6.96466L22.1359 8.40078C22.1171 8.52334 22.1003 8.64485 22.0857 8.76217C22.0323 8.67479 21.9735 8.59082 21.9097 8.51077V8.51496ZM24.6727 11.2573C24.5045 10.9124 24.4236 10.5315 24.4371 10.148C24.4408 9.79704 24.4712 9.44686 24.5282 9.10051C24.5889 8.70875 24.6643 8.30755 24.7565 7.90008C24.8487 7.4926 24.9534 7.09979 25.0707 6.72373C25.173 6.39861 25.2947 6.07994 25.4352 5.76946C25.618 5.34695 25.8654 4.9554 26.1684 4.60883C26.2897 4.46522 26.441 4.34998 26.6116 4.27124C26.7823 4.19251 26.9681 4.1522 27.1561 4.15317C27.5506 4.15317 27.824 4.29947 27.9762 4.59207C28.1396 4.94021 28.2179 5.32224 28.2045 5.70661C28.2005 6.04824 28.1725 6.38916 28.1207 6.72688C28.0656 7.11305 27.9919 7.50517 27.8997 7.90322C27.8086 8.30127 27.7081 8.68989 27.597 9.07223C27.5021 9.40672 27.3852 9.7346 27.2472 10.0537C27.0741 10.486 26.8303 10.8864 26.5256 11.2385C26.4037 11.3834 26.2515 11.4998 26.0798 11.5796C25.9081 11.6594 25.7209 11.7007 25.5316 11.7004C25.1126 11.7004 24.8298 11.5538 24.6738 11.2615L24.6727 11.2573ZM17.7945 7.21501L18.4177 4.04318C18.5562 3.99621 18.6985 3.96117 18.8429 3.93843C19.0238 3.91064 19.2067 3.89733 19.3897 3.89862C20.2974 3.89862 20.7513 4.25442 20.7513 4.96603C20.7494 5.26192 20.701 5.55567 20.6078 5.8365C20.5237 6.11217 20.3808 6.36628 20.1888 6.58127C19.9839 6.79268 19.733 6.95399 19.4557 7.05265C19.1053 7.16682 18.7379 7.21997 18.3695 7.20977C18.3297 7.20977 18.2334 7.20977 18.0804 7.21815H17.9485C17.8962 7.21972 17.844 7.21621 17.7924 7.20768L17.7945 7.21501ZM37.8049 2.84274C37.3434 3.06464 36.9305 3.3758 36.5899 3.75826C36.277 4.11293 36.0372 4.52585 35.884 4.97336C35.7395 5.37376 35.6624 5.79532 35.6557 6.22093C35.6455 6.56555 35.7102 6.90828 35.8453 7.22549C35.9643 7.48589 36.1261 7.72453 36.3239 7.9315C36.5152 8.12963 36.7257 8.30823 36.9523 8.46468C37.1796 8.62181 37.3891 8.77265 37.5808 8.92034C37.7643 9.0569 37.9257 9.22082 38.0594 9.40638C38.1879 9.59035 38.2543 9.81054 38.249 10.0349C38.2572 10.2587 38.2174 10.4818 38.1323 10.689C38.0472 10.8962 37.9188 11.0828 37.7557 11.2364C37.4099 11.5509 36.9543 11.7168 36.4873 11.6983C36.1838 11.7033 35.8815 11.658 35.5928 11.5642C35.423 11.5115 35.2591 11.4413 35.1037 11.3547C35.1632 11.2249 35.215 11.0916 35.2587 10.9556C35.3985 10.5434 35.4731 10.1119 35.4797 9.67664C35.4888 9.32737 35.4171 8.9807 35.2702 8.66371C35.1389 8.39487 34.9616 8.15099 34.7465 7.94302C34.5395 7.74315 34.3132 7.56421 34.071 7.4088C33.8332 7.25691 33.608 7.10607 33.3954 6.95418C33.1973 6.81627 33.0208 6.64964 32.8717 6.45976C32.7312 6.2748 32.6574 6.04777 32.6622 5.81555C32.6627 5.61585 32.6963 5.41762 32.7617 5.22895C32.8245 5.04029 32.925 4.86638 33.0571 4.71777C33.2061 4.55522 33.3882 4.42638 33.591 4.33985C33.7939 4.25332 34.0128 4.2111 34.2333 4.21601C34.5215 4.21053 34.8085 4.25301 35.0827 4.34172C35.2919 4.40905 35.4913 4.5038 35.6756 4.62349L36.4957 3.10252C36.1954 2.90656 35.8679 2.75585 35.5237 2.65524C35.0704 2.52487 34.6001 2.46377 34.1286 2.47402C33.4401 2.47402 32.8508 2.59693 32.3606 2.84274C31.8996 3.06495 31.487 3.37608 31.1467 3.75826C30.8462 4.1015 30.614 4.49899 30.4627 4.92936C30.4459 4.85499 30.4281 4.78271 30.4093 4.71044C30.3008 4.28226 30.1038 3.88155 29.8311 3.53409C29.5624 3.1999 29.2191 2.93334 28.8288 2.7558C28.3642 2.55602 27.8617 2.45987 27.3561 2.47402C26.6173 2.45845 25.8881 2.64305 25.2456 3.00825C24.6286 3.37288 24.0917 3.85853 23.6672 4.43599C23.4396 4.74838 23.2395 5.07993 23.0692 5.42693C23.1099 5.23513 23.1299 5.03953 23.1289 4.84347C23.1327 4.51407 23.0572 4.18858 22.9089 3.89443C22.7521 3.59573 22.5249 3.33974 22.247 3.14861C21.9123 2.92056 21.54 2.75353 21.1472 2.65524C20.644 2.52633 20.1258 2.46539 19.6065 2.47402C18.985 2.4696 18.3646 2.52467 17.7536 2.63848C17.2447 2.72991 16.7495 2.88585 16.28 3.10252L14.3025 12.9553C14.7283 13.1826 15.1881 13.3394 15.6641 13.4194C16.2905 13.5339 16.9263 13.589 17.563 13.5838C18.3279 13.5971 19.0904 13.4962 19.8254 13.2842C20.4348 13.1086 20.989 12.7797 21.4352 12.3289C21.7349 12.0093 21.9719 11.6362 22.1338 11.229L22.1674 11.1452C22.182 11.2081 22.1988 11.2709 22.2155 11.3327C22.3336 11.7688 22.538 12.1766 22.8167 12.5321C23.0874 12.8699 23.4365 13.1364 23.8338 13.3083C24.2925 13.5014 24.7868 13.5952 25.2844 13.5838C26.0341 13.6019 26.7753 13.4212 27.4326 13.0601C28.0519 12.7064 28.5858 12.2207 28.9964 11.6376C29.2554 11.263 29.4768 10.8637 29.6573 10.4455C29.857 9.98963 30.0243 9.52023 30.1579 9.04081C30.2932 8.56117 30.3999 8.07392 30.4774 7.58164L30.5025 7.41508C30.6069 7.60539 30.7354 7.78143 30.8848 7.93884C31.0765 8.13647 31.287 8.31503 31.5132 8.47201C31.7416 8.62914 31.9521 8.77998 32.1417 8.92768C32.3251 9.06396 32.4862 9.22793 32.6193 9.41372C32.7486 9.59736 32.8154 9.8177 32.8099 10.0422C32.8181 10.2661 32.7783 10.4891 32.6932 10.6963C32.6081 10.9035 32.4797 11.0902 32.3166 11.2437C31.9711 11.558 31.5159 11.7239 31.0492 11.7057C30.745 11.7106 30.4421 11.6653 30.1527 11.5716C29.937 11.5059 29.7322 11.4085 29.5452 11.2825L28.6497 12.9585C28.9718 13.1833 29.3358 13.3411 29.7201 13.4225C30.2456 13.5398 30.7831 13.595 31.3216 13.587C32.0897 13.587 32.7401 13.456 33.2729 13.1942C33.6845 12.9975 34.0602 12.733 34.3841 12.4117L34.0909 12.9585C34.4133 13.1834 34.7777 13.3412 35.1624 13.4225C35.6879 13.5398 36.2254 13.595 36.7638 13.587C37.5319 13.587 38.1827 13.456 38.7162 13.1942C39.2068 12.963 39.6439 12.6319 39.9992 12.2221C40.3136 11.8504 40.5534 11.4214 40.7052 10.9588C40.8507 10.5042 40.9953 10.1208 40.9146 9.46295C40.7544 8.67628 40.5061 8.30232 40.3239 8.08234L40.3176 8.07396C40.2768 8.02892 40.2359 7.98493 40.1919 7.94407C39.9845 7.74418 39.7579 7.56524 39.5153 7.40985C39.2786 7.25796 39.0534 7.10712 38.8408 6.95523C38.6428 6.81711 38.4664 6.65051 38.3171 6.46081C38.1762 6.27608 38.1023 6.04889 38.1076 5.8166C38.1095 5.61478 38.1452 5.41472 38.2134 5.22476C38.276 5.0358 38.3769 4.86178 38.5098 4.71358C38.6583 4.55233 38.8395 4.42456 39.0412 4.33877C39.2429 4.25298 39.4606 4.21113 39.6798 4.21601C39.9682 4.21063 40.2556 4.25311 40.5302 4.34172C40.739 4.40925 40.938 4.50399 41.122 4.62349L41.9421 3.10252C41.6424 2.90616 41.3152 2.75542 40.9712 2.65524C40.5176 2.52491 40.0469 2.46381 39.575 2.47402C38.8848 2.47402 38.2972 2.59658 37.806 2.84274" fill="white"/>
<path d="M13.9673 8.75781H12.6507L11.3687 11.5766C11.3226 11.6814 11.2818 11.7767 11.2462 11.8689C11.2106 11.9611 11.1823 12.0417 11.1593 12.1077C11.1362 12.1737 11.1163 12.2575 11.0985 12.3235H11.0859C11.0985 12.2521 11.1073 12.1801 11.1121 12.1077C11.1184 12.0417 11.1226 11.9642 11.1257 11.8741C11.1289 11.784 11.1257 11.6845 11.1257 11.5766L11.0482 8.75781H9.63425L10.1915 13.6119L9.32422 15.0784C9.88053 14.6751 10.5076 14.3799 11.1729 14.208L13.9673 8.75781Z" fill="white"/>
<path d="M7.34263 10.9823L9.30334 8.75746H7.90927L6.16745 10.8923H6.1486L7.02108 6.54199H5.67832L4.25806 13.6116H5.59977L6.08785 11.1615H6.10566L6.99489 13.6116H8.49371L7.34263 10.9823Z" fill="white"/>
<path d="M3.10996 8.66739H3.08377C2.81395 8.66415 2.54619 8.71472 2.29613 8.81614C2.07685 8.90631 1.877 9.0379 1.7075 9.20371C1.55082 9.35845 1.4278 9.54389 1.34615 9.74841C1.2661 9.94573 1.22484 10.1566 1.22465 10.3696C1.21834 10.5163 1.24381 10.6626 1.29931 10.7986C1.35481 10.9346 1.43903 11.0569 1.5462 11.1573C1.63715 11.2428 1.73808 11.317 1.8468 11.3783C1.95154 11.438 2.05628 11.4988 2.14741 11.5574C2.23524 11.6145 2.31338 11.6852 2.37888 11.7669C2.44169 11.8475 2.47397 11.9477 2.47 12.0498C2.46949 12.2249 2.40073 12.3928 2.27833 12.518C2.21108 12.5883 2.12953 12.6434 2.03919 12.6795C1.94886 12.7157 1.85182 12.732 1.75463 12.7275C1.5967 12.73 1.43937 12.7074 1.28854 12.6605C1.17537 12.6265 1.06903 12.573 0.974325 12.5023L0.469482 13.3497C0.637359 13.467 0.824549 13.5539 1.02251 13.6064C1.2635 13.6762 1.51317 13.7114 1.76406 13.7111H1.79339C2.10087 13.7154 2.40654 13.6632 2.69519 13.5571C2.93983 13.4676 3.16493 13.3317 3.35819 13.157C3.5324 12.9964 3.66902 12.7993 3.75829 12.5798C3.84815 12.3644 3.89443 12.1334 3.89445 11.9C3.89812 11.7411 3.86213 11.5837 3.78972 11.4422C3.72912 11.318 3.64602 11.2061 3.54463 11.1123C3.44754 11.0258 3.34231 10.949 3.23041 10.8829C3.11729 10.8169 3.0115 10.753 2.91619 10.6891C2.82384 10.6311 2.73996 10.5606 2.66691 10.4796C2.59885 10.401 2.56327 10.2995 2.56741 10.1957C2.56543 10.111 2.58182 10.0269 2.61545 9.94913C2.64908 9.87138 2.69916 9.80183 2.76222 9.74527C2.89178 9.62579 3.0626 9.56121 3.23879 9.5651C3.37194 9.56425 3.50431 9.58549 3.63051 9.62795C3.73318 9.66025 3.83006 9.70869 3.9175 9.77146L4.3794 9.02459C4.20924 8.9064 4.02107 8.81655 3.82218 8.75852C3.59045 8.69377 3.35053 8.66307 3.10996 8.66739V8.66739Z" fill="white"/>
<path d="M16.7984 19.7218C16.7984 19.835 16.8476 19.8915 16.946 19.8915C17.0962 19.8915 17.3755 19.6838 17.784 19.2683C18.1914 18.8493 18.3977 18.6398 18.4009 18.6398C18.4375 18.6398 18.4564 18.6523 18.4564 18.6764C18.4564 18.7463 18.2993 18.9365 17.9851 19.2473C17.7939 19.4426 17.5921 19.6272 17.3807 19.8004C17.1803 19.9505 17.0309 20.0256 16.9324 20.0256C16.6371 20.0256 16.4894 19.8123 16.4894 19.3856C16.4945 19.294 16.5086 19.2031 16.5313 19.1143C16.0069 19.7218 15.5956 20.0256 15.2975 20.0256C14.9483 20.0256 14.7738 19.8276 14.7738 19.4317C14.7738 19.1677 15.0286 18.6628 15.5383 17.917L15.0827 18.4051C14.8366 18.6691 14.7036 18.8011 14.6816 18.8011L14.6502 18.7916L14.6355 18.7728C14.6355 18.6932 15.0346 18.2375 15.8327 17.4058L16.5093 17.3691L15.575 18.8283C15.2685 19.3074 15.1152 19.6038 15.1152 19.7176C15.1152 19.8308 15.1655 19.8873 15.2671 19.8873C15.8096 19.8873 16.5721 19.0602 17.5546 17.4058L18.1903 17.3691L17.0581 19.1604C16.8863 19.44 16.7984 19.6265 16.7984 19.7218Z" fill="white"/>
<path d="M19.5385 17.5526C19.3018 17.7928 19.0539 18.0631 18.7948 18.3634C18.5351 18.664 18.3874 18.8149 18.3497 18.8149C18.312 18.8149 18.3036 18.8023 18.3036 18.7771C18.3036 18.7192 18.7121 18.2513 19.5291 17.3735C19.6394 17.1095 19.7682 16.9775 19.9155 16.9775C20.0412 16.9775 20.1041 17.0372 20.1041 17.1567C20.1041 17.2488 20.0318 17.3274 19.8883 17.3913C19.821 17.418 19.7638 17.4653 19.7249 17.5265C19.6859 17.5876 19.6673 17.6594 19.6715 17.7317C19.6808 17.9211 19.7103 18.109 19.7595 18.2922C19.8079 18.4751 19.8371 18.6625 19.8464 18.8515C19.8466 19.0436 19.8059 19.2336 19.727 19.4088C19.859 19.2674 19.991 19.127 20.1229 18.9898C20.2295 18.8648 20.3466 18.7492 20.4728 18.6441C20.5094 18.6441 20.5283 18.6598 20.5283 18.6902C20.5283 18.7206 20.4047 18.8882 20.1596 19.1459C19.9232 19.4101 19.6547 19.6437 19.3604 19.8414C19.1721 19.9604 18.9547 20.0256 18.732 20.03C18.3061 20.03 18.0927 19.8672 18.092 19.5418C18.0921 19.4636 18.1225 19.3885 18.1769 19.3323C18.2029 19.3025 18.2351 19.2788 18.2713 19.2629C18.3075 19.2469 18.3468 19.2392 18.3864 19.2401C18.5183 19.2401 18.5843 19.2999 18.5843 19.4193C18.5751 19.4791 18.5556 19.5369 18.5267 19.59C18.4951 19.6484 18.4755 19.7125 18.4691 19.7786C18.4691 19.8466 18.5162 19.8833 18.6115 19.8833C18.8266 19.8833 19.0392 19.6874 19.2494 19.2957C19.468 18.8683 19.576 18.3929 19.5636 17.913C19.5563 17.87 19.55 17.7527 19.5385 17.5526Z" fill="white"/>
<path d="M21.2644 17.9159C21.1101 18.0793 20.9582 18.242 20.8088 18.404C20.5567 18.6708 20.4202 18.8045 20.3993 18.8052L20.371 18.7958L20.3616 18.7769C20.3616 18.6847 20.7606 18.2291 21.5587 17.4099L22.2354 17.3638L21.3011 18.8303C20.9945 19.3122 20.8413 19.6086 20.8413 19.7197C20.8413 19.8307 20.8947 19.8904 21.0015 19.8988C21.211 19.8988 21.5074 19.683 21.918 19.2703C22.3286 18.8576 22.5307 18.6125 22.5401 18.6125C22.5768 18.6125 22.6103 18.6617 22.5946 18.6879C22.558 18.7486 22.3851 18.9215 22.0583 19.2619C21.7525 19.5762 21.5671 19.7773 21.4435 19.8569C21.3194 19.9553 21.1689 20.0147 21.011 20.0276C20.6709 20.0276 20.5005 19.8297 20.4998 19.4337C20.4998 19.2682 20.6011 19.0074 20.8036 18.6512L21.2644 17.9159ZM22.2123 16.5541C22.2146 16.4465 22.2572 16.3437 22.3317 16.2661C22.3635 16.2251 22.4039 16.1917 22.4501 16.1682C22.4962 16.1447 22.547 16.1316 22.5988 16.1299C22.7674 16.1299 22.8523 16.221 22.8523 16.4022C22.85 16.5093 22.8099 16.6121 22.7392 16.6924C22.7096 16.734 22.6707 16.7682 22.6256 16.7922C22.5805 16.8162 22.5305 16.8294 22.4794 16.8307C22.3013 16.8307 22.2123 16.7385 22.2123 16.5541V16.5541Z" fill="white"/>
<path d="M22.6367 19.9953L23.8643 18.1559C24.0643 17.8552 24.1638 17.6656 24.1638 17.5892C24.1638 17.5127 24.1209 17.4656 24.035 17.4656C23.8569 17.4656 23.556 17.6904 23.1321 18.1402C22.7083 18.5899 22.4936 18.8148 22.488 18.8148C22.4576 18.8148 22.4419 18.8022 22.4419 18.777C22.4419 18.7254 22.6137 18.512 22.9572 18.137C23.4607 17.5881 23.8321 17.3133 24.0716 17.3126C24.3167 17.3126 24.4403 17.4624 24.4403 17.7599C24.4403 18.033 24.3143 18.372 24.0622 18.777C24.9218 17.7994 25.4943 17.3105 25.7799 17.3105C26.0166 17.3105 26.134 17.4635 26.134 17.7683C26.134 18.0002 25.9646 18.3521 25.626 18.8242C25.2873 19.2963 25.1176 19.5944 25.1169 19.7187C25.1169 19.8329 25.1672 19.8895 25.2688 19.8895C25.4168 19.8895 25.6961 19.6817 26.1067 19.2662C26.5183 18.8472 26.7226 18.6377 26.7194 18.6377C26.7592 18.6377 26.7791 18.6534 26.7791 18.6838C26.7791 18.7477 26.6158 18.9405 26.2911 19.2589C26.0928 19.4599 25.883 19.6491 25.6626 19.8256C25.4846 19.9576 25.3484 20.0236 25.2615 20.0236C24.9605 20.0236 24.81 19.8001 24.81 19.3532C24.81 19.085 24.9797 18.7358 25.3191 18.3057C25.6584 17.8772 25.8281 17.63 25.8281 17.5619C25.83 17.5477 25.8286 17.5333 25.824 17.5197C25.8194 17.5061 25.8118 17.4938 25.8016 17.4837C25.7915 17.4735 25.7792 17.4659 25.7656 17.4613C25.752 17.4567 25.7376 17.4553 25.7234 17.4572C25.4008 17.4572 24.5936 18.2781 23.3018 19.9199L22.6367 19.9953Z" fill="white"/>
<path d="M26.8679 18.6159C26.7695 18.7427 26.7003 18.8055 26.6584 18.8055C26.6469 18.8058 26.6356 18.8025 26.626 18.7961C26.6215 18.7932 26.6179 18.7891 26.6155 18.7843C26.6131 18.7795 26.612 18.7742 26.6124 18.7689C26.6124 18.7256 26.7353 18.5705 26.981 18.3038C27.5822 17.6494 28.1562 17.3223 28.703 17.3223C29.0521 17.3223 29.2267 17.4682 29.2267 17.7601C29.2267 18.0848 28.9823 18.3809 28.4935 18.6484C28.129 18.8457 27.7382 18.99 27.333 19.0768C27.3099 19.2018 27.2945 19.3281 27.2869 19.455C27.2869 19.7462 27.4129 19.8918 27.665 19.8918C27.886 19.8918 28.1363 19.787 28.4149 19.5692C28.6404 19.3858 28.8506 19.1844 29.0434 18.9668C29.14 18.8475 29.2496 18.7393 29.3701 18.6442C29.4068 18.6442 29.4246 18.6599 29.4246 18.6903C29.4246 18.7455 29.2651 18.9344 28.946 19.257C28.4369 19.7724 27.9935 20.0301 27.6158 20.0301C27.4949 20.0325 27.3755 20.0037 27.2691 19.9464C27.1627 19.8892 27.0728 19.8054 27.0083 19.7032C26.876 19.4978 26.8085 19.2573 26.8145 19.0129C26.8155 18.8789 26.8334 18.7455 26.8679 18.6159V18.6159ZM27.3791 18.9302C27.783 18.8485 28.1581 18.6613 28.4662 18.3876C28.7672 18.1173 28.9173 17.8638 28.9166 17.6271C28.9166 17.5014 28.8611 17.4385 28.7501 17.4385C28.5406 17.4385 28.299 17.582 28.0253 17.8691C27.7377 18.173 27.5175 18.5343 27.3791 18.9291V18.9302Z" fill="white"/>
<path d="M30.4911 17.3955C30.2543 17.6501 30.003 18.0303 29.7432 18.3498C29.4835 18.6693 29.3546 18.8233 29.3012 18.8735C29.2792 18.8945 29.2153 18.7918 29.2331 18.7688C29.5819 18.3498 29.7568 18.0764 30.4816 17.2028C30.5927 16.9234 30.7218 16.7838 30.8692 16.7838C30.8949 16.7802 30.9212 16.7828 30.9458 16.7911C30.9704 16.7995 30.9928 16.8135 31.0111 16.832C31.0294 16.8505 31.0431 16.873 31.0512 16.8977C31.0593 16.9224 31.0615 16.9487 31.0577 16.9744C31.0577 17.0718 30.9854 17.1556 30.8409 17.2237C30.7721 17.2547 30.7145 17.3061 30.6759 17.3709C30.6373 17.4358 30.6196 17.5109 30.6251 17.5862C30.634 17.7869 30.6631 17.9863 30.7121 18.1811C30.7613 18.376 30.7907 18.5754 30.8 18.7761C30.8007 18.9799 30.7597 19.1816 30.6796 19.369C30.8116 19.2196 30.9435 19.0712 31.0755 18.9238C31.182 18.7917 31.2993 18.6687 31.4264 18.5562C31.463 18.5562 31.4808 18.5729 31.4808 18.6054C31.4808 18.6379 31.3583 18.8149 31.1132 19.0893C30.8793 19.3688 30.6107 19.6173 30.3141 19.8289C30.1282 19.9549 29.9101 20.0247 29.6856 20.03C29.2583 20.03 29.0457 19.8572 29.0457 19.5062C29.0451 19.4233 29.0753 19.343 29.1305 19.281C29.1551 19.2505 29.1862 19.226 29.2216 19.2091C29.2569 19.1923 29.2956 19.1835 29.3347 19.1836C29.4667 19.1836 29.5327 19.2475 29.5327 19.3743C29.5239 19.4374 29.5048 19.4986 29.4761 19.5555C29.4443 19.6182 29.4248 19.6865 29.4185 19.7566C29.4185 19.8278 29.4657 19.8613 29.561 19.8613C29.7753 19.8613 29.988 19.6518 30.1988 19.2328C30.4177 18.7737 30.5253 18.2696 30.5131 17.7611C30.511 17.7304 30.5036 17.6085 30.4911 17.3955Z" fill="white"/>
<path d="M14.0753 15.0916C14.157 15.0486 14.2345 15.0036 14.3141 14.9638C14.5786 14.8286 14.8852 14.8008 15.1698 14.8863C15.2309 14.9018 15.2856 14.9359 15.3263 14.984C15.3671 15.0321 15.3918 15.0916 15.3971 15.1544C15.4012 15.2025 15.4012 15.2509 15.3971 15.299C15.3971 15.3734 15.4337 15.4289 15.4903 15.4299C15.506 15.4299 15.5216 15.4268 15.5361 15.4207C15.5506 15.4146 15.5637 15.4057 15.5747 15.3945C15.5857 15.3833 15.5944 15.37 15.6002 15.3554C15.6061 15.3408 15.6089 15.3252 15.6086 15.3095C15.6124 15.2314 15.5991 15.1535 15.5696 15.0811C15.5401 15.0087 15.4952 14.9437 15.4379 14.8905C15.3451 14.8152 15.2377 14.7599 15.1226 14.728C15.0074 14.6961 14.8869 14.6883 14.7686 14.7051C14.5299 14.7166 14.2961 14.7768 14.0815 14.8821C14.0417 14.9009 14.0229 14.8894 13.9841 14.8695C13.8406 14.7941 13.6919 14.7166 13.5652 14.6653C13.2713 14.547 12.9606 14.4763 12.6445 14.4558C11.7812 14.3794 10.9144 14.5571 10.1507 14.9669C9.42208 15.3514 8.79939 15.9094 8.33764 16.5916C7.95275 17.1228 7.69835 17.7371 7.59504 18.3849C7.54436 18.6733 7.57037 18.9698 7.67045 19.2449C7.70238 19.3346 7.75539 19.4153 7.82502 19.4802C7.89466 19.5451 7.97886 19.5923 8.07056 19.6178C8.27959 19.6812 8.50237 19.6833 8.71261 19.6241C9.0513 19.5233 9.35453 19.3287 9.58718 19.0627C10.0994 18.5106 10.4115 17.8486 10.6199 17.1332C10.6268 17.0968 10.6268 17.0595 10.6199 17.0232C10.6147 16.9708 10.5874 16.9184 10.5351 16.9184C10.4882 16.9172 10.4426 16.9336 10.4073 16.9645C10.3799 17.0011 10.3652 17.0456 10.3654 17.0913C10.3414 17.3887 10.2681 17.68 10.1486 17.9534C9.95576 18.4259 9.6518 18.8448 9.26249 19.1748C9.05819 19.3565 8.80147 19.4688 8.52931 19.4953C8.41245 19.5129 8.29327 19.4853 8.19599 19.4182C8.09872 19.3511 8.03065 19.2494 8.00562 19.1339C7.96007 18.9633 7.94727 18.7855 7.96791 18.6101C8.00369 18.274 8.0991 17.947 8.24966 17.6444C8.55876 16.9556 8.99961 16.3339 9.54738 15.8144C10.3067 15.1188 11.174 14.6621 12.2214 14.6003C12.639 14.5716 13.0579 14.6327 13.45 14.7794C13.5773 14.8306 13.698 14.8971 13.8092 14.9774C13.6532 15.061 13.5018 15.1529 13.3557 15.2529C12.8782 15.6201 12.4697 16.0691 12.1491 16.579C11.8726 17.0043 11.6254 17.4464 11.3646 17.8842C10.976 18.5452 10.5927 19.2093 10.1465 19.8336C9.95862 20.1139 9.73739 20.3703 9.48768 20.5973C9.33591 20.7499 9.13369 20.8419 8.91894 20.856C8.59844 20.856 8.47694 20.789 8.37849 20.5271C8.36909 20.4961 8.3614 20.4646 8.35544 20.4328C8.34078 20.3783 8.29574 20.3626 8.25908 20.4045C8.2388 20.4335 8.22951 20.4688 8.2329 20.504C8.23995 20.6019 8.27601 20.6954 8.33645 20.7726C8.3969 20.8499 8.47899 20.9073 8.57226 20.9377C8.76805 21.0012 8.97481 21.0237 9.17967 21.0039C9.38454 20.9841 9.58315 20.9223 9.76314 20.8225C10.0306 20.6569 10.2655 20.4439 10.4565 20.194C10.806 19.7655 11.1212 19.3102 11.3992 18.8322C11.7888 18.1807 12.1659 17.5218 12.5513 16.8692C12.8001 16.4386 13.0977 16.0383 13.4384 15.6761C13.6106 15.4828 13.8019 15.3073 14.0093 15.1523V15.1523C14.2648 15.3231 14.6377 15.8573 14.2449 16.3151C13.9831 16.6199 13.7087 16.7215 13.3672 16.7812C13.3011 16.783 13.2349 16.7767 13.1703 16.7624C13.1048 16.7518 13.0387 16.7455 12.9724 16.7435C12.832 16.7435 12.7629 16.8032 12.7629 16.9226C12.7629 17.0274 12.8341 17.0756 12.9724 17.0756C13.0719 17.0694 13.17 17.0485 13.2635 17.0138C13.3567 16.9789 13.4544 16.9577 13.5537 16.9509C13.7537 16.9509 13.9181 17.0651 14.048 17.2913C14.1573 17.4763 14.2148 17.6872 14.2146 17.902C14.2212 18.4105 14.0459 18.9047 13.7202 19.2952C13.3903 19.6807 13.0132 19.8902 12.5848 19.8902C12.4837 19.8975 12.3822 19.883 12.2872 19.8476C12.1922 19.8123 12.106 19.7569 12.0342 19.6853C11.9625 19.6137 11.907 19.5274 11.8716 19.4325C11.8361 19.3375 11.8214 19.2361 11.8286 19.1349C11.8324 18.9696 11.8702 18.8069 11.9396 18.6568C12.009 18.5067 12.1084 18.3724 12.2318 18.2624C12.3715 18.1374 12.5112 18.0113 12.6508 17.8842L12.6382 17.8643C12.6247 17.8628 12.611 17.8628 12.5974 17.8643C12.4528 17.8643 12.265 18.0103 12.0339 18.3022C11.8204 18.5492 11.698 18.862 11.6872 19.1884C11.6813 19.3156 11.7053 19.4424 11.7573 19.5587C11.8094 19.675 11.8879 19.7774 11.9868 19.8577C12.1912 20.014 12.444 20.0934 12.7011 20.0819C13.2404 20.0777 13.7586 19.8718 14.1538 19.5047C14.6084 19.1088 14.8357 18.6489 14.8357 18.1252C14.8357 17.5218 14.4921 17.0913 13.805 16.8336C14.2125 16.6084 14.6628 16.4439 14.732 15.9244C14.776 15.5954 14.5581 15.2445 14.1905 15.0214" fill="white"/>
<path d="M35.4902 18.4663C37.0456 18.614 37.3756 18.8539 39.3865 19.0665C41.3651 19.276 43.2556 19.1953 44.4507 18.4914C44.5061 18.4639 44.5681 18.4523 44.6298 18.4579C43.4619 19.3514 41.3829 19.7966 39.3499 19.5662C37.2939 19.3326 36.6078 19.0225 35.4452 18.8476C34.7372 18.7428 33.8657 18.6904 32.8267 19.4918C32.6815 19.6115 32.5298 19.7231 32.3722 19.8259C32.1863 19.9517 31.9681 20.0211 31.7437 20.026C31.3178 20.026 31.1045 19.8514 31.1038 19.5023C31.1032 19.4193 31.1334 19.339 31.1886 19.277C31.2139 19.246 31.2459 19.2212 31.2822 19.2043C31.3185 19.1874 31.3581 19.179 31.3981 19.1796C31.5301 19.1796 31.596 19.2435 31.596 19.3703C31.5867 19.4334 31.5672 19.4946 31.5384 19.5515C31.5066 19.6143 31.4871 19.6825 31.4808 19.7526C31.4808 19.8238 31.528 19.8574 31.6233 19.8574C31.8383 19.8574 32.051 19.6496 32.2611 19.2341C32.4794 18.7767 32.5871 18.2743 32.5754 17.7676C32.5754 17.7278 32.5691 17.6031 32.5575 17.3905C32.3208 17.6447 32.073 17.9317 31.8139 18.2515C31.5552 18.5721 31.4075 18.7313 31.3698 18.7313C31.3321 18.7313 31.3248 18.7187 31.3248 18.6925C31.3248 18.6311 31.7326 18.1335 32.5481 17.1999C32.6591 16.9191 32.7869 16.7809 32.9346 16.7809C32.9604 16.7773 32.9866 16.7798 33.0113 16.7882C33.0359 16.7966 33.0582 16.8105 33.0765 16.829C33.0948 16.8475 33.1086 16.87 33.1166 16.8948C33.1247 16.9195 33.127 16.9458 33.1231 16.9715C33.1231 17.07 33.0509 17.1527 32.9074 17.2218C32.8384 17.2523 32.7805 17.3034 32.7417 17.3682C32.7028 17.4329 32.685 17.508 32.6906 17.5832C32.6999 17.784 32.7293 17.9833 32.7785 18.1782C32.827 18.3732 32.8561 18.5725 32.8655 18.7732C32.8659 18.9765 32.8252 19.1778 32.7461 19.365C33.4216 18.8664 34.0805 18.3332 35.4902 18.4663Z" fill="white"/>
</svg>
